HIERARCHY
ROOT Hips
{
  OFFSET 5.72205e-005 65.662 3.42586
  CHANNELS 6 Xposition Yposition Zposition Zrotation Xrotation Yrotation
  JOINT Chest
  {
    OFFSET 0 8.7983 -4.7612
    CHANNELS 6 Xposition Yposition Zposition Zrotation Xrotation Yrotation
    JOINT Chest2
    {
      OFFSET 0 8.0291 0.4195
      CHANNELS 6 Xposition Yposition Zposition Zrotation Xrotation Yrotation
      JOINT Chest3
      {
        OFFSET 0 9.9351 -2.2114
        CHANNELS 6 Xposition Yposition Zposition Zrotation Xrotation Yrotation
        JOINT Neck
        {
          OFFSET 0 22.3885 -0.4656
          CHANNELS 6 Xposition Yposition Zposition Zrotation Xrotation Yrotation
          JOINT Head
          {
            OFFSET -0.0001 12.643 3.4389
            CHANNELS 6 Xposition Yposition Zposition Zrotation Xrotation Yrotation
            End Site
            {
              OFFSET 0.0001 17.6655 0.5274
            }
          }
        }
        JOINT LeftCollar
        {
          OFFSET 2.2603 21.606 7.4023
          CHANNELS 6 Xposition Yposition Zposition Zrotation Xrotation Yrotation
          JOINT LeftShoulder
          {
            OFFSET 13.5163 -1.1332 -5.0146
            CHANNELS 6 Xposition Yposition Zposition Zrotation Xrotation Yrotation
            JOINT LeftElbow
            {
              OFFSET -0.0995 -28.05 -0.2431
              CHANNELS 6 Xposition Yposition Zposition Zrotation Xrotation Yrotation
              JOINT LeftWrist
              {
                OFFSET 0.0679 -23.3996 -0.1402
                CHANNELS 6 Xposition Yposition Zposition Zrotation Xrotation Yrotation
                JOINT LeftFinger1
                {
                  OFFSET 0.7932 -9.069 2.5189
                  CHANNELS 6 Xposition Yposition Zposition Zrotation Xrotation Yrotation
                  JOINT LeftFinger11
                  {
                    OFFSET -0.8272 -3.3923 0.5977
                    CHANNELS 6 Xposition Yposition Zposition Zrotation Xrotation Yrotation
                    JOINT LeftFinger12
                    {
                      OFFSET -0.5649 -2.3158 0.4082
                      CHANNELS 6 Xposition Yposition Zposition Zrotation Xrotation Yrotation
                      End Site
                      {
                        OFFSET -0.4919 -1.6479 0.2673
                      }
                    }
                  }
                }
                JOINT LeftFinger2
                {
                  OFFSET 0.9159 -9.2044 0.2193
                  CHANNELS 6 Xposition Yposition Zposition Zrotation Xrotation Yrotation
                  JOINT LeftFinger21
                  {
                    OFFSET 0.0117 -4.1944 -0.0248
                    CHANNELS 6 Xposition Yposition Zposition Zrotation Xrotation Yrotation
                    JOINT LeftFinger22
                    {
                      OFFSET 0.0071 -2.3249 -0.0142
                      CHANNELS 6 Xposition Yposition Zposition Zrotation Xrotation Yrotation
                      End Site
                      {
                        OFFSET -0.1475 -2.0882 0.0028
                      }
                    }
                  }
                }
                JOINT LeftFinger3
                {
                  OFFSET 0.6113 -8.7231 -2.0637
                  CHANNELS 6 Xposition Yposition Zposition Zrotation Xrotation Yrotation
                  JOINT LeftFinger31
                  {
                    OFFSET -0.1927 -3.8059 -0.2383
                    CHANNELS 6 Xposition Yposition Zposition Zrotation Xrotation Yrotation
                    JOINT LeftFinger32
                    {
                      OFFSET -0.1091 -2.1688 -0.1362
                      CHANNELS 6 Xposition Yposition Zposition Zrotation Xrotation Yrotation
                      End Site
                      {
                        OFFSET -0.2358 -1.9176 -0.0906
                      }
                    }
                  }
                }
                JOINT LeftFinger4
                {
                  OFFSET -0.6151 -8.0947 -3.5641
                  CHANNELS 6 Xposition Yposition Zposition Zrotation Xrotation Yrotation
                  JOINT LeftFinger41
                  {
                    OFFSET -0.4882 -2.341 -0.6462
                    CHANNELS 6 Xposition Yposition Zposition Zrotation Xrotation Yrotation
                    JOINT LeftFinger42
                    {
                      OFFSET -0.3575 -1.7167 -0.4742
                      CHANNELS 6 Xposition Yposition Zposition Zrotation Xrotation Yrotation
                      End Site
                      {
                        OFFSET -0.4187 -1.5237 -0.3496
                      }
                    }
                  }
                }
                JOINT LeftFinger0
                {
                  OFFSET -1.42 -1.8761 1.4223
                  CHANNELS 6 Xposition Yposition Zposition Zrotation Xrotation Yrotation
                  JOINT LeftFinger01
                  {
                    OFFSET -1.1471 -3.4929 2.6334
                    CHANNELS 6 Xposition Yposition Zposition Zrotation Xrotation Yrotation
                    JOINT LeftFinger02
                    {
                      OFFSET -0.823 -2.3 1.6571
                      CHANNELS 6 Xposition Yposition Zposition Zrotation Xrotation Yrotation
                      End Site
                      {
                        OFFSET -0.5822 -1.6914 1.1582
                      }
                    }
                  }
                }
              }
            }
          }
        }
        JOINT RightCollar
        {
          OFFSET -2.2603 21.606 7.4023
          CHANNELS 6 Xposition Yposition Zposition Zrotation Xrotation Yrotation
          JOINT RightShoulder
          {
            OFFSET -13.5187 -1.1334 -5.0155
            CHANNELS 6 Xposition Yposition Zposition Zrotation Xrotation Yrotation
            JOINT RightElbow
            {
              OFFSET 0.0994 -28.0499 -0.2431
              CHANNELS 6 Xposition Yposition Zposition Zrotation Xrotation Yrotation
              JOINT RightWrist
              {
                OFFSET -0.0679 -23.3996 -0.1402
                CHANNELS 6 Xposition Yposition Zposition Zrotation Xrotation Yrotation
                JOINT RightFinger1
                {
                  OFFSET -0.7932 -9.0691 2.5189
                  CHANNELS 6 Xposition Yposition Zposition Zrotation Xrotation Yrotation
                  JOINT RightFinger11
                  {
                    OFFSET 0.8272 -3.3923 0.5977
                    CHANNELS 6 Xposition Yposition Zposition Zrotation Xrotation Yrotation
                    JOINT RightFinger12
                    {
                      OFFSET 0.565 -2.3158 0.4082
                      CHANNELS 6 Xposition Yposition Zposition Zrotation Xrotation Yrotation
                      End Site
                      {
                        OFFSET 0.4919 -1.6479 0.2673
                      }
                    }
                  }
                }
                JOINT RightFinger2
                {
                  OFFSET -0.916 -9.2044 0.2193
                  CHANNELS 6 Xposition Yposition Zposition Zrotation Xrotation Yrotation
                  JOINT RightFinger21
                  {
                    OFFSET -0.0117 -4.1944 -0.0248
                    CHANNELS 6 Xposition Yposition Zposition Zrotation Xrotation Yrotation
                    JOINT RightFinger22
                    {
                      OFFSET -0.0071 -2.3249 -0.0142
                      CHANNELS 6 Xposition Yposition Zposition Zrotation Xrotation Yrotation
                      End Site
                      {
                        OFFSET 0.1475 -2.0882 0.0028
                      }
                    }
                  }
                }
                JOINT RightFinger3
                {
                  OFFSET -0.6113 -8.7231 -2.0637
                  CHANNELS 6 Xposition Yposition Zposition Zrotation Xrotation Yrotation
                  JOINT RightFinger31
                  {
                    OFFSET 0.1927 -3.8059 -0.2383
                    CHANNELS 6 Xposition Yposition Zposition Zrotation Xrotation Yrotation
                    JOINT RightFinger32
                    {
                      OFFSET 0.1091 -2.1688 -0.1362
                      CHANNELS 6 Xposition Yposition Zposition Zrotation Xrotation Yrotation
                      End Site
                      {
                        OFFSET 0.2358 -1.9176 -0.0906
                      }
                    }
                  }
                }
                JOINT RightFinger4
                {
                  OFFSET 0.6151 -8.0947 -3.564
                  CHANNELS 6 Xposition Yposition Zposition Zrotation Xrotation Yrotation
                  JOINT RightFinger41
                  {
                    OFFSET 0.4882 -2.341 -0.6462
                    CHANNELS 6 Xposition Yposition Zposition Zrotation Xrotation Yrotation
                    JOINT RightFinger42
                    {
                      OFFSET 0.3574 -1.7166 -0.4742
                      CHANNELS 6 Xposition Yposition Zposition Zrotation Xrotation Yrotation
                      End Site
                      {
                        OFFSET 0.4187 -1.5237 -0.3496
                      }
                    }
                  }
                }
                JOINT RightFinger0
                {
                  OFFSET 1.4199 -1.8761 1.4221
                  CHANNELS 6 Xposition Yposition Zposition Zrotation Xrotation Yrotation
                  JOINT RightFinger01
                  {
                    OFFSET 1.1472 -3.4929 2.6336
                    CHANNELS 6 Xposition Yposition Zposition Zrotation Xrotation Yrotation
                    JOINT RightFinger02
                    {
                      OFFSET 0.8229 -2.3 1.6571
                      CHANNELS 6 Xposition Yposition Zposition Zrotation Xrotation Yrotation
                      End Site
                      {
                        OFFSET 0.5822 -1.6914 1.1582
                      }
                    }
                  }
                }
              }
            }
          }
        }
      }
    }
  }
  JOINT RightHip
  {
    OFFSET -9.412 3.9771 -0.7758
    CHANNELS 6 Xposition Yposition Zposition Zrotation Xrotation Yrotation
    JOINT RightKnee
    {
      OFFSET -0.7531 -40.938 0
      CHANNELS 6 Xposition Yposition Zposition Zrotation Xrotation Yrotation
      JOINT RightAnkle
      {
        OFFSET 0 -40.1986 0
        CHANNELS 6 Xposition Yposition Zposition Zrotation Xrotation Yrotation
        JOINT RightToe
        {
          OFFSET 0 -4.4182 9.239
          CHANNELS 6 Xposition Yposition Zposition Zrotation Xrotation Yrotation
          End Site
          {
            OFFSET 0 0 6.1981
          }
        }
      }
    }
  }
  JOINT LeftHip
  {
    OFFSET 9.4119 3.9773 -0.7758
    CHANNELS 6 Xposition Yposition Zposition Zrotation Xrotation Yrotation
    JOINT LeftKnee
    {
      OFFSET 0.7532 -40.9383 0
      CHANNELS 6 Xposition Yposition Zposition Zrotation Xrotation Yrotation
      JOINT LeftAnkle
      {
        OFFSET 0 -40.1986 0
        CHANNELS 6 Xposition Yposition Zposition Zrotation Xrotation Yrotation
        JOINT LeftToe
        {
          OFFSET 0 -4.4182 9.239
          CHANNELS 6 Xposition Yposition Zposition Zrotation Xrotation Yrotation
          End Site
          {
            OFFSET 0 0 6.1981
          }
        }
      }
    }
  }
}
MOTION
Frames:	4
Frame Time:	0.0333333
39.8363 12.2081 -0.974608 -0.00777733 -52.8171 179.996 7.10543e-015 8.7983 -4.7612 -0.187662 8.09174 -0.13977 0 8.0291 0.4195 -0.360636 16.1839 -0.256353 7.10543e-015 9.9351 -2.2114 -0.360637 16.184 -0.256354 7.10543e-015 22.3885 -0.4656 1.45926e-006 -43.0951 9.42022e-007 -0.0001 12.643 3.4389 -2.67045e-007 -26.8771 -1.07162e-007 2.2603 21.606 7.4023 2.4779 -10.8222 -77.9255 13.5163 -1.1332 -5.0146 88.3783 8.69078 14.2662 -0.0995 -28.05 -0.2431 -0.982131 -6.26566 11.6771 0.0679 -23.3996 -0.1402 55.5537 -12.5046 17.8898 0.7932 -9.069 2.5189 6.36111e-015 9.54166e-015 -1.59028e-015 -0.8272 -3.3923 0.5977 -0 0 1.59028e-015 -0.5649 -2.3158 0.4082 -3.53113e-031 6.36111e-015 3.18055e-015 0.9159 -9.2044 0.2193 6.36111e-015 9.54166e-015 -1.59028e-015 0.0117 -4.1944 -0.0248 -0.0128874 0.00234492 9.6537e-005 0.0071 -2.3249 -0.0142 -3.18055e-015 -3.18055e-015 -4.77083e-015 0.6113 -8.7231 -2.0637 6.36111e-015 9.54166e-015 -1.59028e-015 -0.1927 -3.8059 -0.2383 -0.0160284 0.00300197 0.000871158 -0.1091 -2.1688 -0.1362 -9.54166e-015 3.18055e-015 -0 -0.6151 -8.0947 -3.5641 6.36111e-015 9.54166e-015 -1.59028e-015 -0.4882 -2.341 -0.6462 -0.0126297 0.0031354 0.00283995 -0.3575 -1.7167 -0.4742 -0 0 3.18055e-015 -1.42 -1.8761 1.4223 6.36111e-015 9.54166e-015 -1.59028e-015 -1.1471 -3.4929 2.6334 -0 0 1.59028e-015 -0.823 -2.3 1.6571 -3.53113e-031 6.36111e-015 3.18055e-015 -2.2603 21.606 7.4023 -1.73037 -9.77336 67.2155 -13.5187 -1.1334 -5.0155 -89.8307 -8.679 -13.9697 0.0994 -28.0499 -0.2431 -0.955769 -8.12249 -11.9445 -0.0679 -23.3996 -0.1402 -60.3104 -8.00262 -11.8356 -0.7932 -9.0691 2.5189 3.18055e-015 3.18055e-015 7.95139e-016 0.8272 -3.3923 0.5977 1.59028e-015 3.18055e-015 -0 0.565 -2.3158 0.4082 3.18055e-015 0 1.59028e-015 -0.916 -9.2044 0.2193 3.18055e-015 3.18055e-015 7.95139e-016 -0.0117 -4.1944 -0.0248 0.0129548 0.00232341 -7.20009e-005 -0.0071 -2.3249 -0.0142 -2.64834e-031 6.36111e-015 2.38542e-015 -0.6113 -8.7231 -2.0637 3.18055e-015 3.18055e-015 7.95139e-016 0.1927 -3.8059 -0.2383 0.0162745 0.00301445 -0.00086123 0.1091 -2.1688 -0.1362 -1.59028e-015 9.54166e-015 3.18055e-015 0.6151 -8.0947 -3.564 3.18055e-015 3.18055e-015 7.95139e-016 0.4882 -2.341 -0.6462 0.0146335 0.00368267 -0.00326291 0.3574 -1.7166 -0.4742 -4.77083e-015 3.18055e-015 -1.59028e-015 1.4199 -1.8761 1.4221 3.18055e-015 3.18055e-015 7.95139e-016 1.1472 -3.4929 2.6336 1.59028e-015 3.18055e-015 -0 0.8229 -2.3 1.6571 3.18055e-015 0 1.59028e-015 -9.412 3.9771 -0.7758 -140.192 -9.78487 -171.763 -0.7531 -40.938 1.77636e-015 -146.851 62.1028 144.644 7.10543e-015 -40.1986 1.42109e-014 -16.9044 -8.18555 0.447363 1.42109e-014 -4.4182 9.239 -4.63328e-007 -1.39783e-006 2.68794e-006 9.4119 3.9773 -0.7758 137.965 -8.74805 172.757 0.7532 -40.9383 -1.77636e-015 146.926 62.1148 -144.763 0 -40.1986 3.55271e-015 19.1081 -8.61735 -1.9597 -3.55271e-015 -4.4182 9.239 7.95139e-016 1.02904e-006 6.36111e-015 
39.8364 12.305 -1.01725 -0.00783425 -53.1425 179.996 0 8.7983 -4.7612 -0.187463 8.09176 -0.139913 7.10543e-015 8.0291 0.4195 -0.360212 16.184 -0.256672 -7.10543e-015 9.9351 -2.2114 -0.360213 16.184 -0.256673 7.10543e-015 22.3885 -0.4656 1.74275e-006 -43.1458 9.72069e-007 -0.0001 12.643 3.4389 3.14997e-007 -26.9367 3.21739e-008 2.2603 21.606 7.4023 2.57112 -11.0326 -78.4601 13.5163 -1.1332 -5.0146 88.2821 9.4684 14.3258 -0.0995 -28.05 -0.2431 -1.00559 -6.50162 11.66 0.0679 -23.3996 -0.1402 55.9866 -12.4872 18.0487 0.7932 -9.069 2.5189 -6.36111e-015 9.54166e-015 3.18055e-015 -0.8272 -3.3923 0.5977 -6.36111e-015 6.36111e-015 -3.18055e-015 -0.5649 -2.3158 0.4082 -6.36111e-015 9.54166e-015 -3.97569e-015 0.9159 -9.2044 0.2193 -6.36111e-015 9.54166e-015 3.18055e-015 0.0117 -4.1944 -0.0248 -0.0128089 0.0023157 8.46786e-005 0.0071 -2.3249 -0.0142 -6.36111e-015 -9.54166e-015 1.59028e-015 0.6113 -8.7231 -2.0637 -6.36111e-015 9.54166e-015 3.18055e-015 -0.1927 -3.8059 -0.2383 -0.0160027 0.00297713 0.000845949 -0.1091 -2.1688 -0.1362 9.54166e-015 0 2.38542e-015 -0.6151 -8.0947 -3.5641 -6.36111e-015 9.54166e-015 3.18055e-015 -0.4882 -2.341 -0.6462 -0.0126595 0.00313814 0.00284158 -0.3575 -1.7167 -0.4742 -5.37698e-006 6.60386e-006 1.07544e-005 -1.42 -1.8761 1.4223 -6.36111e-015 9.54166e-015 3.18055e-015 -1.1471 -3.4929 2.6334 -6.36111e-015 6.36111e-015 -3.18055e-015 -0.823 -2.3 1.6571 -6.36111e-015 9.54166e-015 -3.97569e-015 -2.2603 21.606 7.4023 -1.73961 -9.81233 66.4225 -13.5187 -1.1334 -5.0155 -89.9047 -9.73484 -13.9588 0.0994 -28.0499 -0.2431 -1.15132 -7.85857 -11.9633 -0.0679 -23.3996 -0.1402 -60.5611 -7.98265 -11.9559 -0.7932 -9.0691 2.5189 -1.59028e-015 0 -1.59028e-015 0.8272 -3.3923 0.5977 1.59028e-015 0 7.95139e-016 0.565 -2.3158 0.4082 1.59028e-015 -3.18055e-015 7.95139e-016 -0.916 -9.2044 0.2193 -1.59028e-015 0 -1.59028e-015 -0.0117 -4.1944 -0.0248 0.0129741 0.00232006 -8.46124e-005 -0.0071 -2.3249 -0.0142 -1.23589e-030 6.36111e-015 1.11319e-014 -0.6113 -8.7231 -2.0637 -1.59028e-015 0 -1.59028e-015 0.1927 -3.8059 -0.2383 0.0163315 0.00303049 -0.000868817 0.1091 -2.1688 -0.1362 -1.59028e-015 -3.18055e-015 -6.36111e-015 0.6151 -8.0947 -3.564 -1.59028e-015 0 -1.59028e-015 0.4882 -2.341 -0.6462 0.0145718 0.00365268 -0.00324973 0.3574 -1.7166 -0.4742 -3.18055e-015 3.18055e-015 2.38542e-015 1.4199 -1.8761 1.4221 -1.59028e-015 0 -1.59028e-015 1.1472 -3.4929 2.6336 1.59028e-015 0 7.95139e-016 0.8229 -2.3 1.6571 1.59028e-015 -3.18055e-015 7.95139e-016 -9.412 3.9771 -0.7758 -140.468 -9.79275 -171.745 -0.7531 -40.938 -1.77636e-015 -146.836 62.1121 144.625 -7.10543e-015 -40.1986 0 -16.5568 -8.25004 0.237189 0 -4.4182 9.239 2.07554e-006 6.67284e-008 4.6833e-006 9.4119 3.9773 -0.7758 138.358 -8.80826 172.681 0.7532 -40.9383 -3.55271e-015 146.911 62.1242 -144.743 3.55271e-015 -40.1986 -3.55271e-015 18.6423 -8.65153 -1.6718 0 -4.4182 9.239 -1.62764e-006 1.26521e-006 1.02418e-007 
39.8366 12.4021 -1.05998 -0.00787696 -53.4678 179.996 -7.10543e-015 8.7983 -4.7612 -0.187265 8.09178 -0.140055 -7.10543e-015 8.0291 0.4195 -0.359787 16.184 -0.25699 0 9.9351 -2.2114 -0.359789 16.184 -0.256991 -7.10543e-015 22.3885 -0.4656 2.58473e-006 -43.1964 1.88244e-006 -0.0001 12.643 3.4389 -3.6382e-007 -26.9963 4.20085e-008 2.2603 21.606 7.4023 2.66239 -11.2438 -78.9947 13.5163 -1.1332 -5.0146 88.1847 10.2456 14.3868 -0.0995 -28.05 -0.2431 -1.02893 -6.73741 11.6429 0.0679 -23.3996 -0.1402 56.4193 -12.4687 18.2075 0.7932 -9.069 2.5189 4.27845e-006 -1.08171e-005 -1.2932e-005 -0.8272 -3.3923 0.5977 4.70012e-006 6.25428e-006 7.11842e-006 -0.5649 -2.3158 0.4082 2.85629e-006 -3.2175e-006 -1.19353e-007 0.9159 -9.2044 0.2193 4.27845e-006 -1.08171e-005 -1.2932e-005 0.0117 -4.1944 -0.0248 -0.0128722 0.0023394 9.50249e-005 0.0071 -2.3249 -0.0142 3.16328e-006 -4.53725e-006 2.59296e-006 0.6113 -8.7231 -2.0637 4.27845e-006 -1.08171e-005 -1.2932e-005 -0.1927 -3.8059 -0.2383 -0.0160657 0.00300581 0.000874927 -0.1091 -2.1688 -0.1362 1.36791e-005 -1.87442e-006 1.3055e-006 -0.6151 -8.0947 -3.5641 4.27845e-006 -1.08171e-005 -1.2932e-005 -0.4882 -2.341 -0.6462 -0.0125588 0.00311719 0.0028274 -0.3575 -1.7167 -0.4742 7.77923e-007 2.11991e-006 5.07128e-006 -1.42 -1.8761 1.4223 4.27845e-006 -1.08171e-005 -1.2932e-005 -1.1471 -3.4929 2.6334 4.70012e-006 6.25428e-006 7.11842e-006 -0.823 -2.3 1.6571 2.85629e-006 -3.2175e-006 -1.19353e-007 -2.2603 21.606 7.4023 -1.74937 -9.85113 65.6296 -13.5187 -1.1334 -5.0155 -90.0393 -10.753 -13.9592 0.0994 -28.0499 -0.2431 -1.28004 -7.61658 -11.9824 -0.0679 -23.3996 -0.1402 -60.8118 -7.96217 -12.0761 -0.7932 -9.0691 2.5189 -3.18055e-015 -3.18055e-015 -7.95139e-016 0.8272 -3.3923 0.5977 -4.77083e-015 -3.18055e-015 1.59028e-015 0.565 -2.3158 0.4082 -3.18055e-015 0 -3.18055e-015 -0.916 -9.2044 0.2193 -3.18055e-015 -3.18055e-015 -7.95139e-016 -0.0117 -4.1944 -0.0248 0.0129196 0.00230833 -8.60787e-005 -0.0071 -2.3249 -0.0142 -1.55964e-006 -4.09506e-006 -5.66912e-007 -0.6113 -8.7231 -2.0637 -3.18055e-015 -3.18055e-015 -7.95139e-016 0.1927 -3.8059 -0.2383 0.0163464 0.00301807 -0.000868111 0.1091 -2.1688 -0.1362 -3.18055e-015 -3.18055e-015 6.36111e-015 0.6151 -8.0947 -3.564 -3.18055e-015 -3.18055e-015 -7.95139e-016 0.4882 -2.341 -0.6462 0.014545 0.00366918 -0.00325611 0.3574 -1.7166 -0.4742 3.18055e-015 -3.18055e-015 -1.59028e-015 1.4199 -1.8761 1.4221 -3.18055e-015 -3.18055e-015 -7.95139e-016 1.1472 -3.4929 2.6336 -4.77083e-015 -3.18055e-015 1.59028e-015 0.8229 -2.3 1.6571 -3.18055e-015 0 -3.18055e-015 -9.412 3.9771 -0.7758 -140.743 -9.80067 -171.726 -0.7531 -40.938 -3.55271e-015 -146.821 62.1215 144.607 -7.10543e-015 -40.1986 0 -16.2094 -8.31567 0.0273582 -1.42109e-014 -4.4182 9.239 4.45165e-007 1.87607e-006 4.78474e-006 9.4119 3.9773 -0.7758 138.751 -8.86878 172.606 0.7532 -40.9383 1.77636e-015 146.896 62.1335 -144.723 0 -40.1986 0 18.1769 -8.68801 -1.38418 3.55271e-015 -4.4182 9.239 -5.33154e-006 1.56496e-006 -4.47884e-006 
39.8367 12.4995 -1.10282 -0.00792073 -53.7931 179.996 0 8.7983 -4.7612 -0.187065 8.09178 -0.140196 -7.10543e-015 8.0291 0.4195 -0.359361 16.184 -0.257306 -7.10543e-015 9.9351 -2.2114 -0.359363 16.184 -0.257306 7.10543e-015 22.3885 -0.4656 3.44e-006 -43.2472 1.97544e-006 -0.0001 12.643 3.4389 4.62304e-007 -27.0558 3.34821e-007 2.2603 21.606 7.4023 2.7517 -11.4558 -79.5293 13.5163 -1.1332 -5.0146 88.0862 11.0226 14.4494 -0.0995 -28.05 -0.2431 -1.05242 -6.97329 11.6256 0.0679 -23.3996 -0.1402 56.8519 -12.449 18.3661 0.7932 -9.069 2.5189 -5.29669e-031 -1.27222e-014 -2.38542e-015 -0.8272 -3.3923 0.5977 3.18055e-015 3.18055e-015 -0 -0.5649 -2.3158 0.4082 6.36111e-015 -6.36111e-015 -2.38542e-015 0.9159 -9.2044 0.2193 -5.29669e-031 -1.27222e-014 -2.38542e-015 0.0117 -4.1944 -0.0248 -0.0128135 0.00232586 7.85523e-005 0.0071 -2.3249 -0.0142 3.53113e-031 -6.36111e-015 3.18055e-015 0.6113 -8.7231 -2.0637 -5.29669e-031 -1.27222e-014 -2.38542e-015 -0.1927 -3.8059 -0.2383 -0.0161101 0.00300363 0.000863307 -0.1091 -2.1688 -0.1362 1.76556e-031 6.36111e-015 -1.59028e-015 -0.6151 -8.0947 -3.5641 -5.29669e-031 -1.27222e-014 -2.38542e-015 -0.4882 -2.341 -0.6462 -0.0126165 0.00313336 0.00283139 -0.3575 -1.7167 -0.4742 9.71059e-031 6.36111e-015 -8.74653e-015 -1.42 -1.8761 1.4223 -5.29669e-031 -1.27222e-014 -2.38542e-015 -1.1471 -3.4929 2.6334 3.18055e-015 3.18055e-015 -0 -0.823 -2.3 1.6571 6.36111e-015 -6.36111e-015 -2.38542e-015 -2.2603 21.606 7.4023 -1.75971 -9.88985 64.8369 -13.5187 -1.1334 -5.0155 -90.1222 -11.8003 -13.9525 0.0994 -28.0499 -0.2431 -1.46524 -7.35798 -11.9999 -0.0679 -23.3996 -0.1402 -61.0625 -7.94115 -12.1962 -0.7932 -9.06911 2.5189 2.46047e-006 -1.67362e-007 -2.58748e-006 0.8272 -3.3923 0.5977 1.43846e-006 5.97904e-006 -5.04694e-006 0.565 -2.3158 0.4082 -5.22338e-006 1.38119e-005 1.96944e-007 -0.916 -9.20441 0.2193 2.46047e-006 -1.67362e-007 -2.58748e-006 -0.0117 -4.1944 -0.0248 0.0129205 0.00231683 -8.53942e-005 -0.0071 -2.3249 -0.0142 -3.39578e-006 5.80046e-006 -9.23297e-006 -0.6113 -8.72311 -2.0637 2.46047e-006 -1.67362e-007 -2.58748e-006 0.1927 -3.8059 -0.2383 0.0163291 0.00305251 -0.000881499 0.1091 -2.1688 -0.1362 -1.6168e-006 -3.5233e-006 1.47251e-005 0.6151 -8.09471 -3.564 2.46047e-006 -1.67362e-007 -2.58748e-006 0.4882 -2.341 -0.6462 0.0146335 0.00370041 -0.00327732 0.3574 -1.7166 -0.4742 2.84936e-006 1.06557e-005 -6.97021e-006 1.4199 -1.8761 1.4221 2.46047e-006 -1.67362e-007 -2.58748e-006 1.1472 -3.4929 2.6336 1.43846e-006 5.97904e-006 -5.04694e-006 0.822899 -2.3 1.6571 -5.22338e-006 1.38119e-005 1.96944e-007 -9.412 3.9771 -0.7758 -141.019 -9.80856 -171.708 -0.7531 -40.938 7.10543e-015 -146.806 62.1308 144.589 0 -40.1986 0 -15.8624 -8.38264 -0.182039 0 -4.4182 9.239 3.18055e-015 2.10904e-009 -0 9.4119 3.9773 -0.7758 139.144 -8.92974 172.531 0.7532 -40.9383 -3.55271e-015 146.882 62.1426 -144.702 0 -40.1986 -3.55271e-015 17.7118 -8.72676 -1.09683 7.10543e-015 -4.4182 9.239 -1.62798e-006 -7.84498e-007 1.0177e-007 
